<svg width="82" height="24" viewBox="0 0 82 24" fill="none" xmlns="http://www.w3.org/2000/svg">
<path d="M3 6H5H21" stroke="#E83F5B" stroke-width="2" stroke-linecap="round" stroke-linejoin="round"/>
<path d="M8 6V4C8 3.46957 8.21071 2.96086 8.58579 2.58579C8.96086 2.21071 9.46957 2 10 2H14C14.5304 2 15.0391 2.21071 15.4142 2.58579C15.7893 2.96086 16 3.46957 16 4V6M19 6V20C19 20.5304 18.7893 21.0391 18.4142 21.4142C18.0391 21.7893 17.5304 22 17 22H7C6.46957 22 5.96086 21.7893 5.58579 21.4142C5.21071 21.0391 5 20.5304 5 20V6H19Z" stroke="#E83F5B" stroke-width="2" stroke-linecap="round" stroke-linejoin="round"/>
<path d="M39.9375 18H33.5703V6.57812H39.9375V7.75781H34.8984V11.4375H39.6328V12.6094H34.8984V16.8125H39.9375V18ZM44.3438 13.6172L41.3672 9.4375H42.8438L45.1016 12.7188L47.3516 9.4375H48.8125L45.8359 13.6172L48.9688 18H47.5L45.1016 14.5312L42.6797 18H41.2109L44.3438 13.6172ZM54.0938 18.1562C52.8542 18.1562 51.8932 17.776 51.2109 17.0156C50.5339 16.25 50.1953 15.1693 50.1953 13.7734C50.1953 12.3411 50.5391 11.2344 51.2266 10.4531C51.9193 9.67188 52.9036 9.28125 54.1797 9.28125C54.5911 9.28125 55.0026 9.32552 55.4141 9.41406C55.8255 9.5026 56.1484 9.60677 56.3828 9.72656L55.9844 10.8281C55.6979 10.7135 55.3854 10.6198 55.0469 10.5469C54.7083 10.4688 54.4089 10.4297 54.1484 10.4297C52.4089 10.4297 51.5391 11.5391 51.5391 13.7578C51.5391 14.8099 51.75 15.6172 52.1719 16.1797C52.599 16.7422 53.2292 17.0234 54.0625 17.0234C54.776 17.0234 55.5078 16.8698 56.2578 16.5625V17.7109C55.6849 18.0078 54.9635 18.1562 54.0938 18.1562ZM59.5938 18H58.2969V5.84375H59.5938V18ZM63.5625 9.4375V14.9922C63.5625 15.6901 63.7214 16.2109 64.0391 16.5547C64.3568 16.8984 64.8542 17.0703 65.5312 17.0703C66.4271 17.0703 67.0807 16.8255 67.4922 16.3359C67.9089 15.8464 68.1172 15.0469 68.1172 13.9375V9.4375H69.4141V18H68.3438L68.1562 16.8516H68.0859C67.8203 17.2734 67.4505 17.5964 66.9766 17.8203C66.5078 18.0443 65.9714 18.1562 65.3672 18.1562C64.3255 18.1562 63.5443 17.9089 63.0234 17.4141C62.5078 16.9193 62.25 16.1276 62.25 15.0391V9.4375H63.5625ZM73.4688 18H72.1719V9.4375H73.4688V18ZM72.0625 7.11719C72.0625 6.82031 72.1354 6.60417 72.2812 6.46875C72.4271 6.32812 72.6094 6.25781 72.8281 6.25781C73.0365 6.25781 73.2161 6.32812 73.3672 6.46875C73.5182 6.60938 73.5938 6.82552 73.5938 7.11719C73.5938 7.40885 73.5182 7.6276 73.3672 7.77344C73.2161 7.91406 73.0365 7.98438 72.8281 7.98438C72.6094 7.98438 72.4271 7.91406 72.2812 7.77344C72.1354 7.6276 72.0625 7.40885 72.0625 7.11719ZM80.125 9.28125C80.5052 9.28125 80.8464 9.3125 81.1484 9.375L80.9688 10.5781C80.6146 10.5 80.3021 10.4609 80.0312 10.4609C79.3385 10.4609 78.7448 10.7422 78.25 11.3047C77.7604 11.8672 77.5156 12.5677 77.5156 13.4062V18H76.2188V9.4375H77.2891L77.4375 11.0234H77.5C77.8177 10.4661 78.2005 10.0365 78.6484 9.73438C79.0964 9.43229 79.5885 9.28125 80.125 9.28125Z" fill="#4D5E77"/>
</svg>
